<svg width="136" height="87" viewBox="0 0 136 87" fill="none" xmlns="http://www.w3.org/2000/svg">
<path d="M19.917 65.5049C20.9066 65.5049 21.9189 65.2803 22.9541 64.8311C23.9958 64.3753 24.8193 63.708 25.4248 62.8291C25.4248 62.7445 25.3857 62.6729 25.3076 62.6143C25.236 62.5557 25.1546 62.5264 25.0635 62.5264C24.0869 63.7113 22.6514 64.3037 20.7568 64.3037C18.7581 64.3037 17.2477 63.7015 16.2256 62.4971C15.21 61.2861 14.7021 59.7822 14.7021 57.9854C14.7021 57.1715 14.79 56.387 14.9658 55.6318C15.1481 54.8701 15.4281 54.1442 15.8057 53.4541C16.1898 52.7575 16.7334 52.1943 17.4365 51.7646C18.1462 51.335 18.973 51.1201 19.917 51.1201C20.5615 51.1201 21.1572 51.221 21.7041 51.4229C22.251 51.6247 22.7002 51.8623 23.0518 52.1357C23.4033 52.4092 23.7451 52.777 24.0771 53.2393C24.4157 53.695 24.6696 54.0921 24.8389 54.4307C25.0146 54.7627 25.223 55.1859 25.4639 55.7002C25.6592 55.6742 25.7796 55.6025 25.8252 55.4854C25.3434 53.5518 24.6143 52.2269 23.6377 51.5107C22.6676 50.7881 21.4274 50.4268 19.917 50.4268C19.305 50.4268 18.68 50.5016 18.042 50.6514C17.404 50.7946 16.7464 51.055 16.0693 51.4326C15.3988 51.8037 14.8063 52.266 14.292 52.8193C13.7777 53.3662 13.3545 54.0889 13.0225 54.9873C12.6904 55.8792 12.5244 56.8786 12.5244 57.9854C12.5244 59.0921 12.6904 60.0915 13.0225 60.9834C13.3545 61.8753 13.7777 62.5947 14.292 63.1416C14.8063 63.6885 15.3988 64.1475 16.0693 64.5186C16.7464 64.8831 17.404 65.137 18.042 65.2803C18.68 65.43 19.305 65.5049 19.917 65.5049ZM25.2197 56.1396C24.9398 55.5146 24.6826 55.0003 24.4482 54.5967C24.2139 54.1865 23.9014 53.7308 23.5107 53.2295C23.1201 52.7217 22.6546 52.3278 22.1143 52.0479C21.5739 51.7679 20.9684 51.5986 20.2979 51.54C19.5557 51.5986 18.9079 51.8363 18.3545 52.2529C17.8011 52.6631 17.3714 53.1904 17.0654 53.835C16.766 54.4795 16.5446 55.1501 16.4014 55.8467C16.2646 56.5368 16.1963 57.2497 16.1963 57.9854C16.1963 59.626 16.6097 61.0029 17.4365 62.1162C18.2633 63.2295 19.4971 63.8252 21.1377 63.9033C22.7262 63.8252 23.973 63.2327 24.8779 62.126C25.1318 62.126 25.3532 62.2106 25.542 62.3799C25.7308 62.5426 25.8252 62.738 25.8252 62.9658C25.1676 63.9229 24.279 64.652 23.1592 65.1533C22.0394 65.6546 20.9587 65.9053 19.917 65.9053C19.266 65.9053 18.6051 65.8271 17.9346 65.6709C17.2705 65.5212 16.5804 65.2542 15.8643 64.8701C15.1546 64.4795 14.5264 63.9945 13.9795 63.415C13.4326 62.8356 12.9867 62.0771 12.6416 61.1396C12.2965 60.1956 12.124 59.1442 12.124 57.9854C12.124 56.7744 12.3031 55.6937 12.6611 54.7432C13.0192 53.7861 13.4782 53.0212 14.0381 52.4482C14.598 51.8753 15.2523 51.4001 16.001 51.0225C16.7497 50.6383 17.4756 50.3779 18.1787 50.2412C18.8883 50.098 19.6012 50.0264 20.3174 50.0264C21.2939 50.0264 22.3551 50.1566 23.501 50.417C24.6468 50.6774 25.4671 50.8402 25.9619 50.9053C25.7471 51.7451 25.6624 52.484 25.708 53.1221C25.7536 53.7536 25.9391 54.5283 26.2646 55.4463C26.0758 55.8304 25.7275 56.0615 25.2197 56.1396ZM32.8271 56.8623C33.4977 56.8623 34.0283 57.1846 34.4189 57.8291C34.8161 58.4671 35.0146 59.46 35.0146 60.8076C35.0146 62.1553 34.8161 63.1481 34.4189 63.7861C34.0283 64.4242 33.4977 64.7432 32.8271 64.7432C32.4561 64.7432 32.1175 64.665 31.8115 64.5088C31.512 64.3525 31.2549 64.1117 31.04 63.7861C30.8317 63.4606 30.6689 63.0537 30.5518 62.5654C30.4346 62.0706 30.376 61.4847 30.376 60.8076C30.376 60.137 30.4346 59.5544 30.5518 59.0596C30.6689 58.5583 30.8317 58.1481 31.04 57.8291C31.2549 57.5036 31.512 57.2627 31.8115 57.1064C32.1175 56.9437 32.4561 56.8623 32.8271 56.8623ZM32.8271 65.3877C33.4326 65.3877 33.9762 65.2738 34.458 65.0459C34.9398 64.818 35.3499 64.5023 35.6885 64.0986C36.0335 63.6885 36.2972 63.2035 36.4795 62.6436C36.6618 62.0837 36.7529 61.4717 36.7529 60.8076C36.7529 60.1436 36.6618 59.5316 36.4795 58.9717C36.2972 58.4118 36.0335 57.93 35.6885 57.5264C35.3499 57.1162 34.9398 56.7972 34.458 56.5693C33.9762 56.3415 33.4326 56.2275 32.8271 56.2275C32.1826 56.2275 31.5999 56.3415 31.0791 56.5693C30.5583 56.7972 30.1156 57.113 29.751 57.5166C29.3929 57.9202 29.1162 58.4053 28.9209 58.9717C28.7256 59.5316 28.6279 60.1436 28.6279 60.8076C28.6279 61.4782 28.7256 62.0934 28.9209 62.6533C29.1162 63.2132 29.3929 63.6982 29.751 64.1084C30.1156 64.512 30.5583 64.8278 31.0791 65.0557C31.5999 65.277 32.1826 65.3877 32.8271 65.3877ZM33.1689 55.8271C33.9567 55.8271 34.6566 55.9476 35.2686 56.1885C35.887 56.4294 36.4079 56.7712 36.8311 57.2139C37.2542 57.6501 37.5765 58.1742 37.7979 58.7861C38.0192 59.3981 38.1299 60.0719 38.1299 60.8076C38.1299 61.5368 38.0192 62.2074 37.7979 62.8193C37.5765 63.4313 37.2542 63.9587 36.8311 64.4014C36.4144 64.8376 35.8968 65.1761 35.2783 65.417C34.6598 65.6644 33.9567 65.7881 33.1689 65.7881C32.3877 65.7881 31.6878 65.6644 31.0693 65.417C30.4574 65.1761 29.9398 64.8376 29.5166 64.4014C29.0999 63.9587 28.7809 63.4346 28.5596 62.8291C28.3382 62.2171 28.2275 61.5433 28.2275 60.8076C28.2275 60.0719 28.3382 59.3981 28.5596 58.7861C28.7809 58.1742 29.1032 57.6501 29.5264 57.2139C29.9495 56.7712 30.4671 56.4294 31.0791 56.1885C31.6911 55.9476 32.3877 55.8271 33.1689 55.8271ZM31.7529 60.8076C31.7529 62.9105 32.2249 64.0758 33.1689 64.3037C34.1325 64.0758 34.6143 62.9105 34.6143 60.8076C34.6143 58.7243 34.1325 57.5557 33.1689 57.3018C32.2249 57.5557 31.7529 58.7243 31.7529 60.8076ZM41.5479 65.2217C41.2354 65.3258 40.9294 65.4528 40.6299 65.6025C40.3239 65.4137 40.1221 65.2217 40.0244 65.0264C40.0374 64.9873 40.057 64.8538 40.083 64.626C40.109 64.3981 40.1351 64.1312 40.1611 63.8252C40.1937 63.5192 40.2197 63.2035 40.2393 62.8779C40.2588 62.5524 40.2686 62.2757 40.2686 62.0479C40.5745 61.9046 41.0465 61.833 41.6846 61.833C41.7562 61.833 41.8278 61.833 41.8994 61.833C41.971 61.833 42.0459 61.8363 42.124 61.8428C42.5928 63.3662 43.234 64.193 44.0479 64.3232C44.3799 64.2712 44.6338 64.1507 44.8096 63.9619C44.9919 63.7666 45.083 63.5485 45.083 63.3076C45.083 63.1318 45.0342 62.9691 44.9365 62.8193C44.8389 62.6631 44.7087 62.5199 44.5459 62.3896C44.3831 62.2594 44.1911 62.139 43.9697 62.0283C43.7549 61.9176 43.527 61.8102 43.2861 61.7061C43.0452 61.5954 42.8011 61.4912 42.5537 61.3936C42.3063 61.2894 42.0687 61.182 41.8408 61.0713C41.5999 60.9606 41.3721 60.8271 41.1572 60.6709C40.9424 60.5081 40.7536 60.3258 40.5908 60.124C40.4281 59.9157 40.2979 59.6878 40.2002 59.4404C40.109 59.193 40.0635 58.9261 40.0635 58.6396C40.0635 58.3337 40.1156 58.0146 40.2197 57.6826C40.3239 57.3506 40.5029 57.0479 40.7568 56.7744C41.0107 56.501 41.3525 56.2764 41.7822 56.1006C42.2119 55.9183 42.7523 55.8271 43.4033 55.8271C44.126 55.8271 44.6598 55.8662 45.0049 55.9443L45.3662 55.8271H46.0303C46.1149 56.3805 46.2158 56.8981 46.333 57.3799C46.4567 57.8617 46.5934 58.3109 46.7432 58.7275C46.4632 59.0075 46.1247 59.1475 45.7275 59.1475C45.5062 58.887 45.3011 58.6527 45.1123 58.4443C44.9235 58.2295 44.7412 58.0439 44.5654 57.8877C44.3962 57.7314 44.2269 57.6045 44.0576 57.5068C43.8949 57.4092 43.7256 57.3408 43.5498 57.3018C43.1201 57.3734 42.9053 57.5687 42.9053 57.8877C42.9053 58.1416 43.016 58.363 43.2373 58.5518C43.4587 58.7406 43.7354 58.9131 44.0674 59.0693C44.3994 59.2256 44.7607 59.3753 45.1514 59.5186C45.5485 59.6553 45.9229 59.8018 46.2744 59.958C46.5283 60.0687 46.766 60.2119 46.9873 60.3877C47.2152 60.5635 47.4137 60.7686 47.583 61.0029C47.7523 61.2308 47.8857 61.488 47.9834 61.7744C48.0811 62.0544 48.1299 62.3571 48.1299 62.6826C48.1299 63.1644 48.0062 63.5973 47.7588 63.9814C47.5179 64.3656 47.1956 64.6911 46.792 64.958C46.3949 65.2249 45.9391 65.43 45.4248 65.5732C44.9105 65.7165 44.3864 65.7881 43.8525 65.7881C42.9346 65.7881 42.1663 65.5993 41.5479 65.2217ZM43.7842 65.3877C44.598 65.3877 45.2946 65.1468 45.874 64.665C46.4535 64.1833 46.7432 63.6429 46.7432 63.0439C46.7432 62.458 46.5641 61.9535 46.2061 61.5303C45.848 61.1006 45.415 60.7686 44.9072 60.5342C44.3994 60.2998 43.8883 60.085 43.374 59.8896C42.8597 59.6878 42.4235 59.4535 42.0654 59.1865C41.7074 58.9196 41.5283 58.6071 41.5283 58.249C41.5283 57.7933 41.6976 57.4482 42.0361 57.2139C42.3747 56.9795 42.7718 56.8623 43.2275 56.8623C43.7093 56.8623 44.139 57.012 44.5166 57.3115C44.8942 57.611 45.3564 58.0895 45.9033 58.7471C46.0791 58.7471 46.2061 58.7048 46.2842 58.6201C46.0433 57.93 45.6852 57.3604 45.21 56.9111C44.7412 56.4554 44.139 56.2275 43.4033 56.2275C42.3551 56.2275 41.6032 56.4782 41.1475 56.9795C40.6917 57.4743 40.4639 58.0277 40.4639 58.6396C40.4639 59.1605 40.6364 59.6064 40.9814 59.9775C41.333 60.3421 41.7529 60.6253 42.2412 60.8271C42.736 61.0225 43.2275 61.2178 43.7158 61.4131C44.2041 61.6084 44.6208 61.8623 44.9658 62.1748C45.3109 62.4873 45.4834 62.8649 45.4834 63.3076C45.4834 63.6787 45.3239 64.0107 45.0049 64.3037C44.6859 64.5967 44.2399 64.7432 43.667 64.7432C42.9769 64.7432 42.443 64.5251 42.0654 64.0889C41.6943 63.6462 41.3818 63.0309 41.1279 62.2432C40.9001 62.2432 40.7471 62.2627 40.6689 62.3018C40.6689 62.7705 40.6462 63.3076 40.6006 63.9131C40.555 64.5186 40.5094 64.8766 40.4639 64.9873C40.5094 65.0524 40.5713 65.111 40.6494 65.1631C40.9163 64.9743 41.1214 64.7757 41.2646 64.5674C41.8376 64.8864 42.2835 65.1012 42.6025 65.2119C42.9281 65.3291 43.3219 65.3877 43.7842 65.3877ZM59.9463 58.8838C59.9463 60.7653 59.9821 62.3766 60.0537 63.7178C60.0667 64.0628 60.2848 64.2549 60.708 64.2939C60.8708 64.6976 60.8708 65.0915 60.708 65.4756C59.0413 65.4365 57.3682 65.4365 55.6885 65.4756C55.5322 65.0915 55.5322 64.6976 55.6885 64.2939C56.3265 64.2028 56.6455 64.0107 56.6455 63.7178L56.665 59.1279C56.665 58.4183 56.5251 57.9854 56.2451 57.8291C55.6722 57.9723 55.0928 58.3239 54.5068 58.8838C54.5068 60.6742 54.5329 62.279 54.585 63.6982C54.6045 63.8675 54.6533 63.9977 54.7314 64.0889C54.8096 64.1735 54.9821 64.2419 55.249 64.2939C55.4118 64.6976 55.4118 65.0915 55.249 65.4756C53.3805 65.4235 51.5023 65.4235 49.6143 65.4756C49.4515 65.0915 49.4515 64.6976 49.6143 64.2939C50.6755 64.1507 51.2126 63.9521 51.2256 63.6982C51.2842 62.2334 51.2842 60.3877 51.2256 58.1611C50.7894 58.0309 50.2523 57.9463 49.6143 57.9072C49.4645 57.5166 49.4645 57.1032 49.6143 56.667C50.5973 56.6149 51.7041 56.3219 52.9346 55.7881C53.6377 55.8402 54.1618 56.0518 54.5068 56.4229V56.7451C54.9626 56.4261 55.3988 56.195 55.8154 56.0518C56.2386 55.902 56.7952 55.8271 57.4854 55.8271C58.5531 55.8271 59.2692 56.2145 59.6338 56.9893C60.2718 56.5205 60.8024 56.2113 61.2256 56.0615C61.6553 55.9053 62.238 55.8271 62.9736 55.8271C63.8656 55.8271 64.4971 56.0713 64.8682 56.5596C65.2458 57.0413 65.4346 57.79 65.4346 58.8057C65.4346 60.7393 65.4671 62.3766 65.5322 63.7178C65.5452 63.9847 66.0042 64.1768 66.9092 64.2939C67.0589 64.7236 67.0459 65.1175 66.8701 65.4756C64.9626 65.4365 63.0615 65.4365 61.167 65.4756C61.0107 65.0915 61.0107 64.6976 61.167 64.2939C61.3818 64.2939 61.5967 64.2386 61.8115 64.1279C62.0264 64.0107 62.1338 63.874 62.1338 63.7178L62.1533 59.1279C62.1533 58.4183 62.0133 57.9854 61.7334 57.8291C61.1995 57.9593 60.6038 58.3109 59.9463 58.8838ZM58.5498 58.4639C58.5107 57.6891 58.3577 57.1227 58.0908 56.7646C57.8239 56.4066 57.391 56.2275 56.792 56.2275C56.3493 56.2275 55.8903 56.3545 55.415 56.6084C54.9463 56.8623 54.5719 57.113 54.292 57.3604C54.012 57.6012 53.6247 57.9691 53.1299 58.4639V56.5205C53.0778 56.4163 52.9639 56.3317 52.7881 56.2666C51.8831 56.6898 50.9424 56.9567 49.9658 57.0674C49.9268 57.2236 49.9268 57.3766 49.9658 57.5264C50.7145 57.5654 51.2679 57.6989 51.626 57.9268C51.6715 59.8734 51.6715 61.8037 51.626 63.7178C51.613 64.1995 51.0531 64.512 49.9463 64.6553C49.8682 64.805 49.8682 64.9645 49.9463 65.1338C51.613 65.0817 53.2731 65.0817 54.9268 65.1338C55.0114 64.9645 55.0114 64.805 54.9268 64.6553C53.7939 64.5251 53.221 64.2126 53.208 63.7178C53.1559 62.3636 53.1299 60.8206 53.1299 59.0889C53.807 58.4964 54.3604 58.0602 54.79 57.7803C55.2197 57.5003 55.6266 57.3604 56.0107 57.3604C56.7139 57.3604 57.0654 57.9495 57.0654 59.1279L57.0459 63.7178C57.0459 64.2256 56.7008 64.5381 56.0107 64.6553C55.9326 64.805 55.9326 64.9645 56.0107 65.1338C57.4756 65.0947 58.9339 65.0947 60.3857 65.1338C60.4704 64.9645 60.4704 64.805 60.3857 64.6553C60.0407 64.6292 59.7607 64.5934 59.5459 64.5479C59.3376 64.5023 59.139 64.4111 58.9502 64.2744C58.7614 64.1312 58.667 63.9456 58.667 63.7178L58.5693 59.0889C59.2464 58.4964 59.7998 58.0602 60.2295 57.7803C60.6592 57.5003 61.0661 57.3604 61.4502 57.3604C62.1533 57.3604 62.5049 57.9495 62.5049 59.1279L62.4854 63.7178C62.4854 64.2256 62.1403 64.5381 61.4502 64.6553C61.3721 64.805 61.3721 64.9645 61.4502 65.1338C63.1299 65.0947 64.8161 65.0947 66.5088 65.1338C66.5999 64.9775 66.5999 64.818 66.5088 64.6553C64.9202 64.5771 64.1195 64.2646 64.1064 63.7178L64.0088 58.8057C63.9827 57.9137 63.8395 57.2627 63.5791 56.8525C63.3187 56.4359 62.8695 56.2275 62.2314 56.2275C61.7887 56.2275 61.3298 56.3512 60.8545 56.5986C60.3857 56.8395 60.0049 57.0902 59.7119 57.3506C59.4189 57.611 59.0316 57.9821 58.5498 58.4639ZM72.8076 56.8623C73.3285 56.8623 73.7061 57.0316 73.9404 57.3701C74.1748 57.7021 74.292 58.1188 74.292 58.6201C74.292 58.8089 74.2594 59.0238 74.1943 59.2646H70.3857C70.5876 58.4508 70.9131 57.8486 71.3623 57.458C71.818 57.0609 72.2998 56.8623 72.8076 56.8623ZM70.2881 59.9287H75.6104C75.7145 59.6032 75.7666 59.2679 75.7666 58.9229C75.7666 58.1611 75.5485 57.5231 75.1123 57.0088C74.6826 56.488 73.9958 56.2275 73.0518 56.2275C71.8213 56.2275 70.7861 56.6735 69.9463 57.5654C69.1064 58.4574 68.6865 59.5902 68.6865 60.9639C68.6865 62.4287 69.0869 63.5322 69.8877 64.2744C70.6885 65.0166 71.6292 65.3877 72.71 65.3877C73.5107 65.3877 74.2529 65.1729 74.9365 64.7432C75.6266 64.307 76.1312 63.6527 76.4502 62.7803C76.359 62.6761 76.2321 62.6045 76.0693 62.5654C76.0433 62.6045 75.9652 62.7119 75.835 62.8877C75.7113 63.057 75.6201 63.1807 75.5615 63.2588C75.5029 63.3304 75.3955 63.4378 75.2393 63.5811C75.0895 63.7178 74.943 63.8187 74.7998 63.8838C74.6631 63.9489 74.4873 64.014 74.2725 64.0791C74.0576 64.1377 73.8232 64.167 73.5693 64.167C72.5667 64.167 71.7692 63.8708 71.1768 63.2783C70.5843 62.6794 70.2751 61.8753 70.249 60.8662C70.249 60.6383 70.262 60.3258 70.2881 59.9287ZM75.9131 62.1064C76.3232 62.1976 76.6553 62.4027 76.9092 62.7217C76.5381 63.7373 75.9652 64.5023 75.1904 65.0166C74.4157 65.5309 73.5889 65.7881 72.71 65.7881C71.512 65.7881 70.4736 65.3844 69.5947 64.5771C68.7223 63.7699 68.2861 62.5654 68.2861 60.9639C68.2861 59.512 68.7321 58.2946 69.624 57.3115C70.5225 56.3219 71.792 55.8271 73.4326 55.8271C75.9131 55.8271 77.1533 56.859 77.1533 58.9229C77.1533 59.3265 77.0589 59.7952 76.8701 60.3291H71.626V60.9639C71.6585 61.7516 71.8734 62.3929 72.2705 62.8877C72.6676 63.376 73.2145 63.6624 73.9111 63.7471C74.3213 63.708 74.6598 63.568 74.9268 63.3271C75.1937 63.0863 75.5225 62.6794 75.9131 62.1064ZM73.8916 58.6201C73.8916 57.904 73.6507 57.471 73.1689 57.3213C72.596 57.4971 72.1696 58.0114 71.8896 58.8643H73.8721C73.8721 58.8382 73.8753 58.7992 73.8818 58.7471C73.8883 58.695 73.8916 58.6527 73.8916 58.6201ZM82.0947 57.4092H85.9326C86.0238 57.1553 86.0238 56.9209 85.9326 56.7061H82.0947V54.5674C81.932 54.4958 81.7692 54.4958 81.6064 54.5674C81.3656 55.0166 81.0986 55.4105 80.8057 55.749C80.5127 56.0811 80.2653 56.3154 80.0635 56.4521C79.8682 56.5824 79.585 56.7516 79.2139 56.96C79.1683 57.0967 79.1683 57.2464 79.2139 57.4092H80.4053V62.5264C80.4053 64.4339 81.193 65.3877 82.7686 65.3877C83.4391 65.3877 84.0576 65.2152 84.624 64.8701C85.1904 64.5186 85.6136 64.0889 85.8936 63.5811C85.835 63.4378 85.7275 63.3597 85.5713 63.3467C84.9593 63.8936 84.3669 64.167 83.7939 64.167C82.6611 64.167 82.0947 63.6527 82.0947 62.624V57.4092ZM85.4541 62.9268C85.8643 62.9788 86.1572 63.2035 86.333 63.6006C85.9945 64.2191 85.5029 64.7367 84.8584 65.1533C84.2139 65.5765 83.5173 65.7881 82.7686 65.7881C80.9326 65.7881 80.0146 64.7008 80.0146 62.5264V57.7998H78.8135C78.7158 57.4548 78.7158 57.0967 78.8135 56.7256C79.2106 56.4977 79.5133 56.3122 79.7217 56.1689C79.93 56.0192 80.1904 55.7783 80.5029 55.4463C80.8154 55.1143 81.0921 54.7139 81.333 54.2451C81.945 53.9912 82.6579 54.0042 83.4717 54.2842V56.3057H86.3135C86.5218 56.7874 86.5218 57.2855 86.3135 57.7998H83.4717V62.624C83.4717 63.249 83.6963 63.6169 84.1455 63.7275C84.5361 63.6429 84.9723 63.376 85.4541 62.9268ZM90.5713 51.3838C92.0426 51.3838 92.7783 51.9176 92.7783 52.9854C92.7783 54.0531 92.0426 54.5869 90.5713 54.5869C90.3499 54.5869 90.1416 54.5446 89.9463 54.46C89.7575 54.3753 89.5915 54.2614 89.4482 54.1182C89.305 53.9684 89.1911 53.7959 89.1064 53.6006C89.0218 53.4053 88.9795 53.2002 88.9795 52.9854C88.9795 52.7705 89.0218 52.5654 89.1064 52.3701C89.1911 52.1748 89.305 52.0055 89.4482 51.8623C89.5915 51.7126 89.7575 51.5954 89.9463 51.5107C90.1416 51.4261 90.3499 51.3838 90.5713 51.3838ZM89.6729 52.1455C89.4775 52.3734 89.3799 52.6533 89.3799 52.9854C89.3799 53.1546 89.4059 53.3141 89.458 53.4639C89.5166 53.6071 89.5947 53.734 89.6924 53.8447C89.79 53.9489 89.9007 54.0335 90.0244 54.0986C90.1546 54.1572 90.2913 54.1865 90.4346 54.1865C90.5713 54.1865 90.7048 54.1572 90.835 54.0986C90.9652 54.0335 91.0791 53.9489 91.1768 53.8447C91.2744 53.734 91.3525 53.6071 91.4111 53.4639C91.4697 53.3141 91.499 53.1546 91.499 52.9854C91.499 52.8161 91.4697 52.6598 91.4111 52.5166C91.3525 52.3669 91.2744 52.2399 91.1768 52.1357C91.0791 52.0251 90.9652 51.9404 90.835 51.8818C90.7048 51.8167 90.5713 51.7842 90.4346 51.7842C90.2979 51.7842 90.1644 51.8135 90.0342 51.8721C89.904 51.9307 89.7835 52.0218 89.6729 52.1455ZM93.6182 64.6553C92.0687 64.512 91.2874 64.1995 91.2744 63.7178C91.2093 61.7646 91.1833 59.3656 91.1963 56.5205C91.1442 56.4163 91.0303 56.3317 90.8545 56.2666C89.9495 56.6898 89.0088 56.9567 88.0322 57.0674C87.9932 57.2236 87.9932 57.3766 88.0322 57.5264C88.7679 57.5654 89.3278 57.6989 89.7119 57.9268C89.7705 60.3551 89.764 62.2855 89.6924 63.7178C89.6794 64.1995 89.126 64.512 88.0322 64.6553C87.9671 64.818 87.9671 64.9775 88.0322 65.1338C89.9007 65.0947 91.7627 65.0947 93.6182 65.1338C93.6833 64.9775 93.6833 64.818 93.6182 64.6553ZM93.9795 64.2939C94.0837 64.6976 94.0837 65.0915 93.9795 65.4756C91.8831 65.4105 89.7835 65.4105 87.6807 65.4756C87.57 65.0915 87.57 64.6976 87.6807 64.2939C88.7419 64.1898 89.279 63.9912 89.292 63.6982C89.3766 61.8753 89.3831 60.0296 89.3115 58.1611C88.8753 58.0309 88.3317 57.9463 87.6807 57.9072C87.5309 57.5166 87.5309 57.1032 87.6807 56.667C88.6637 56.6149 89.7705 56.3219 91.001 55.7881C91.7041 55.8402 92.2282 56.0518 92.5732 56.4229C92.5472 59.626 92.5732 62.0511 92.6514 63.6982C92.6709 63.9912 93.1136 64.1898 93.9795 64.2939ZM102.935 58.3271C102.935 58.7243 102.769 58.9717 102.437 59.0693C102.345 59.2386 102.345 59.3916 102.437 59.5283C102.769 59.5283 103.049 59.4144 103.276 59.1865C103.504 58.9587 103.618 58.6722 103.618 58.3271C103.618 57.7152 103.332 57.2139 102.759 56.8232C102.186 56.4261 101.437 56.2275 100.513 56.2275C99.2236 56.2275 98.1429 56.6637 97.2705 57.5361C96.4046 58.4085 95.9717 59.5511 95.9717 60.9639C95.9717 62.4287 96.3753 63.5322 97.1826 64.2744C97.9899 65.0166 98.9404 65.3877 100.034 65.3877C100.835 65.3877 101.577 65.1729 102.261 64.7432C102.951 64.307 103.455 63.6527 103.774 62.7803C103.683 62.6761 103.556 62.6045 103.394 62.5654C103.224 62.8063 103.084 62.9854 102.974 63.1025C102.869 63.2132 102.697 63.3727 102.456 63.5811C102.215 63.7829 101.945 63.9326 101.646 64.0303C101.346 64.1214 101.017 64.167 100.659 64.167C99.6436 64.167 98.8981 63.8708 98.4229 63.2783C97.9541 62.6794 97.7197 61.9079 97.7197 60.9639C97.7197 58.2295 98.6507 56.8623 100.513 56.8623C101.261 56.8623 101.851 56.986 102.28 57.2334C102.716 57.4808 102.935 57.8454 102.935 58.3271ZM103.218 62.1846C103.654 62.2367 103.993 62.4157 104.233 62.7217C103.862 63.7373 103.289 64.5023 102.515 65.0166C101.74 65.5309 100.913 65.7881 100.034 65.7881C98.8493 65.7881 97.8076 65.3844 96.9092 64.5771C96.0173 63.7699 95.5713 62.5654 95.5713 60.9639C95.5713 59.4339 96.04 58.1969 96.9775 57.2529C97.9215 56.3024 99.0999 55.8271 100.513 55.8271C101.554 55.8271 102.397 56.0615 103.042 56.5303C103.693 56.9925 104.019 57.5915 104.019 58.3271C104.019 58.7764 103.866 59.1344 103.56 59.4014C103.26 59.6683 102.886 59.8018 102.437 59.8018C101.623 59.8018 101.216 59.4437 101.216 58.7275C101.216 58.2718 101.496 57.943 102.056 57.7412C101.685 57.4873 101.297 57.3408 100.894 57.3018C99.6956 57.4775 99.0967 58.6982 99.0967 60.9639C99.0967 62.6696 99.7282 63.5973 100.991 63.7471C101.753 63.6494 102.495 63.1286 103.218 62.1846Z" fill="#201F1F"/>
<path d="M113.088 56.0459C110.852 52.6847 107.843 49.962 104.336 48.127C98.7876 45.4055 97.6229 42.9766 96.2979 38.0869C100.098 43.6996 103.827 44.8451 107.143 44.0003C102.575 43.4978 100.3 37.4361 99.8357 35.7247C101.386 37.1342 103.338 37.9711 105.391 38.1056C108.992 38.4338 111.775 36.7991 112.082 33.3626C112.389 29.9262 109.056 28.5148 109.056 28.5148C110.911 29.7533 110.842 31.9546 109.355 33.4772C107.869 34.9998 104.2 34.4219 102.95 31.209C101.699 27.9962 104.225 24.3996 104.225 24.3996C106.298 19.4331 103.737 13.7196 103.737 13.7196C106.956 17.6553 106.861 24.4152 106.861 24.4152C108 22.0269 108.63 19.4097 108.707 16.7435C108.801 9.39262 102.978 7.52677 102.978 7.52677C108.349 7.72375 114.954 13.6348 116.646 16.9127C116.805 17.2159 116.951 17.5289 117.091 17.8434C117.775 17.483 118.389 16.9927 118.901 16.3976C118.813 16.8406 118.629 17.2568 118.364 17.6145C118.098 17.9722 117.758 18.262 117.369 18.4618C117.509 18.7763 117.658 19.0824 117.827 19.3826C118.222 20.2251 118.798 20.9609 119.511 21.5324C120.324 22.0561 120.95 22.4745 121.808 22.9619C122.434 23.2646 123.022 23.6466 123.559 24.0991C123.823 24.3327 124.017 24.6396 124.121 24.9842C124.224 25.3287 124.231 25.6967 124.141 26.0453C123.869 26.8084 122.944 27.2934 122.962 28.1143C122.988 29.0824 124.336 29.5462 124.422 30.5138C124.487 31.2635 123.746 31.8605 123.749 32.623C123.926 32.5752 124.111 32.5757 124.287 32.6243C124.463 32.673 124.624 32.7682 124.755 32.9007C124.885 33.0402 124.977 33.2142 125.02 33.4038C125.062 33.5935 125.054 33.7917 124.997 33.9772C124.787 34.6646 123.922 35.1088 124.011 35.8229C124.073 36.2753 124.491 36.5595 124.799 36.8821C125.691 37.8362 125.643 39.4686 124.923 40.5703C124.139 41.638 122.997 42.3577 121.726 42.5853C120.089 42.9641 118.639 43.38 117.018 43.7771C116.145 43.909 115.322 44.2862 114.638 44.8683C114.311 45.2259 114.061 45.6518 113.904 46.1178C113.811 46.3692 113.692 46.6086 113.547 46.8314C113.183 47.3803 112.605 48.8821 114.182 51.838C116.248 55.7233 125.513 60.2541 127.172 66.3768C127.172 66.3768 120.788 60.7965 114.173 58.5899C106.65 56.0543 101.486 57.3114 97.7695 57.6142C103.773 53.4411 113.088 56.0459 113.088 56.0459Z" fill="#16147A"/>
<path d="M91.2789 34.5495C92.5221 44.7433 100.27 50.9089 100.27 50.9089C97.9891 50.1077 95.8825 48.8441 94.0716 47.1909C91.4848 44.6529 90.5777 39.9041 91.2789 34.5495Z" fill="#16147A"/>
<path d="M93.312 8.8765C93.312 8.8765 81.7515 8.3048 79.1549 26.2871C76.5583 44.2695 69.4528 52.3371 57.1103 53.2469C46.6555 53.0381 47.0442 45.2504 47.0442 45.2504C47.0442 45.2504 57.6773 55.014 66.7147 47.9613C75.7521 40.9085 76.0139 29.5655 78.4037 22.2557C81.1934 13.7205 85.824 7.26578 93.312 8.8765Z" fill="#16147A"/>
<path d="M94.0451 23.7946C92.6515 24.2051 91.2026 23.36 90.8088 21.9071C90.4151 20.4541 91.2256 18.9434 92.6192 18.5329C94.0128 18.1224 95.4618 18.9674 95.8555 20.4204C96.2493 21.8734 95.4388 23.3841 94.0451 23.7946Z" fill="#16147A"/>
<path d="M87.7549 25.6476C86.3613 26.0581 84.9123 25.2131 84.5186 23.7601C84.1248 22.3071 84.9353 20.7964 86.329 20.3859C87.7226 19.9754 89.1715 20.8205 89.5653 22.2734C89.959 23.7264 89.1485 25.2371 87.7549 25.6476Z" fill="#16147A"/>
<path d="M91.7878 28.0006C90.3942 28.4112 88.9453 27.5661 88.5515 26.1131C88.1578 24.6601 88.9683 23.1495 90.3619 22.7389C91.7555 22.3284 93.2045 23.1735 93.5982 24.6265C93.992 26.0794 93.1814 27.5901 91.7878 28.0006Z" fill="#16147A"/>
<path d="M90.0105 21.442C88.6169 21.8526 87.1679 21.0075 86.7742 19.5545C86.3804 18.1016 87.191 16.5909 88.5846 16.1803C89.9782 15.7698 91.4271 16.6149 91.8209 18.0679C92.2146 19.5208 91.4041 21.0315 90.0105 21.442Z" fill="#16147A"/>
<g filter="url(#filter0_d_291_2322)">
<path d="M12.7139 44.9854C12.7139 45.4671 11.9619 45.7796 10.458 45.9229C10.4059 46.027 10.4059 46.18 10.458 46.3818C11.5648 46.3428 12.6976 46.3232 13.8564 46.3232C15.2432 46.3232 16.5778 46.3428 17.8604 46.3818C17.9124 46.2646 17.9124 46.1117 17.8604 45.9229C15.6989 45.7926 14.6117 45.4801 14.5986 44.9854C14.527 43.3708 14.4912 41.4372 14.4912 39.1846C14.4912 36.9189 14.527 34.9788 14.5986 33.3643C14.6117 32.8695 15.6989 32.557 17.8604 32.4268C17.9255 32.264 17.9255 32.111 17.8604 31.9678C16.1481 32.0199 14.8135 32.0459 13.8564 32.0459C13.0557 32.0459 11.9229 32.0199 10.458 31.9678C10.4189 32.124 10.4189 32.277 10.458 32.4268C11.9489 32.57 12.7008 32.8825 12.7139 33.3643C12.7529 34.5622 12.7855 36.3688 12.8115 38.7842C11.6136 38.8232 10.4808 38.8428 9.41309 38.8428C7.62923 38.8428 6.33691 38.8298 5.53613 38.8037C5.53613 36.6162 5.5752 34.8031 5.65332 33.3643C5.66634 32.8695 6.75358 32.557 8.91504 32.4268C8.9541 32.3031 8.9541 32.1501 8.91504 31.9678C7.20931 32.0199 5.87467 32.0459 4.91113 32.0459C4.11686 32.0459 2.98405 32.0199 1.5127 31.9678C1.46061 32.085 1.46061 32.238 1.5127 32.4268C3.01009 32.57 3.7653 32.8825 3.77832 33.3643C3.84342 34.8942 3.87598 36.7139 3.87598 38.8232C3.87598 40.887 3.83691 42.9411 3.75879 44.9854C3.74577 45.4671 2.99056 45.7796 1.49316 45.9229C1.44108 46.027 1.44108 46.18 1.49316 46.3818C2.59993 46.3428 3.73275 46.3232 4.8916 46.3232C6.27832 46.3232 7.61296 46.3428 8.89551 46.3818C8.94759 46.2777 8.94759 46.1247 8.89551 45.9229C6.73405 45.7926 5.64681 45.4801 5.63379 44.9854C5.56868 43.0257 5.53613 41.193 5.53613 39.4873C7.1377 39.4548 8.43001 39.4385 9.41309 39.4385C10.4808 39.4385 11.6136 39.4613 12.8115 39.5068C12.7985 40.9587 12.766 42.7848 12.7139 44.9854ZM12.3135 44.9854C12.3656 42.3942 12.3981 40.7601 12.4111 40.083C11.1351 40.057 10.1357 40.0439 9.41309 40.0439C8.85319 40.0439 8.3291 40.0472 7.84082 40.0537C7.35905 40.0602 7.09212 40.0635 7.04004 40.0635C7.04004 41.5674 7.07259 43.2015 7.1377 44.9658C7.1377 45.0049 7.15072 45.0439 7.17676 45.083C7.2028 45.1221 7.24837 45.1546 7.31348 45.1807C7.37858 45.2067 7.44368 45.236 7.50879 45.2686C7.5804 45.2946 7.66829 45.3206 7.77246 45.3467C7.88314 45.3727 7.98079 45.3955 8.06543 45.415C8.15007 45.4346 8.25749 45.4541 8.3877 45.4736C8.52441 45.4932 8.63184 45.5094 8.70996 45.5225C8.7946 45.5355 8.90527 45.5485 9.04199 45.5615C9.18522 45.5745 9.28288 45.5876 9.33496 45.6006C9.43913 45.9652 9.4196 46.3656 9.27637 46.8018C6.87402 46.7497 5.41243 46.7236 4.8916 46.7236C4.54655 46.7236 3.32259 46.7497 1.21973 46.8018C1.05697 46.3525 1.05697 45.9326 1.21973 45.542C2.63249 45.3988 3.34538 45.2067 3.3584 44.9658C3.43652 42.9215 3.47559 40.874 3.47559 38.8232C3.47559 36.7269 3.44303 34.9137 3.37793 33.3838C3.36491 33.1429 2.639 32.9508 1.2002 32.8076C1.08952 32.391 1.10254 31.971 1.23926 31.5479C1.81217 31.5479 2.58691 31.5641 3.56348 31.5967C4.54655 31.6292 5.23014 31.6455 5.61426 31.6455C5.89421 31.6455 6.43457 31.639 7.23535 31.626C8.03613 31.613 8.72949 31.6064 9.31543 31.6064C9.43262 31.9775 9.43913 32.3779 9.33496 32.8076C7.89616 32.9508 7.17025 33.1429 7.15723 33.3838C7.0791 35.1807 7.04004 36.8604 7.04004 38.4229C7.66504 38.4619 8.45605 38.4684 9.41309 38.4424L12.4111 38.4033C12.3851 36.2809 12.3525 34.6077 12.3135 33.3838C12.3005 33.1429 11.5745 32.9508 10.1357 32.8076C10.0186 32.3519 10.0316 31.932 10.1748 31.5479C11.1188 31.613 12.3981 31.6455 14.0127 31.6455C14.3187 31.6455 14.9404 31.639 15.8779 31.626C16.8219 31.613 17.613 31.6064 18.251 31.6064C18.3747 31.9775 18.3844 32.3779 18.2803 32.8076C16.835 32.9508 16.1058 33.1429 16.0928 33.3838C16.0277 34.9984 15.9951 36.932 15.9951 39.1846C15.9951 41.4242 16.0277 43.3512 16.0928 44.9658C16.1058 45.2067 16.835 45.3988 18.2803 45.542C18.3844 45.9587 18.3682 46.3786 18.2314 46.8018C16.1286 46.7497 14.9046 46.7236 14.5596 46.7236C14.0387 46.7236 12.5771 46.7497 10.1748 46.8018C10.0186 46.3525 10.0186 45.9326 10.1748 45.542C11.6006 45.3988 12.3135 45.2132 12.3135 44.9854ZM22.4111 32.6025C23.8825 32.6025 24.6182 33.1364 24.6182 34.2041C24.6182 35.2718 23.8825 35.8057 22.4111 35.8057C22.1898 35.8057 21.9814 35.7633 21.7861 35.6787C21.5973 35.5941 21.4313 35.4801 21.2881 35.3369C21.1449 35.1872 21.0309 35.0146 20.9463 34.8193C20.8617 34.624 20.8193 34.4189 20.8193 34.2041C20.8193 33.9893 20.8617 33.7842 20.9463 33.5889C21.0309 33.3936 21.1449 33.2243 21.2881 33.0811C21.4313 32.9313 21.5973 32.8141 21.7861 32.7295C21.9814 32.6449 22.1898 32.6025 22.4111 32.6025ZM21.5127 33.3643C21.3174 33.5921 21.2197 33.8721 21.2197 34.2041C21.2197 34.3734 21.2458 34.5329 21.2979 34.6826C21.3564 34.8258 21.4346 34.9528 21.5322 35.0635C21.6299 35.1676 21.7406 35.2523 21.8643 35.3174C21.9945 35.376 22.1312 35.4053 22.2744 35.4053C22.4111 35.4053 22.5446 35.376 22.6748 35.3174C22.805 35.2523 22.9189 35.1676 23.0166 35.0635C23.1143 34.9528 23.1924 34.8258 23.251 34.6826C23.3096 34.5329 23.3389 34.3734 23.3389 34.2041C23.3389 34.0348 23.3096 33.8786 23.251 33.7354C23.1924 33.5856 23.1143 33.4587 23.0166 33.3545C22.9189 33.2438 22.805 33.1592 22.6748 33.1006C22.5446 33.0355 22.4111 33.0029 22.2744 33.0029C22.1377 33.0029 22.0042 33.0322 21.874 33.0908C21.7438 33.1494 21.6234 33.2406 21.5127 33.3643ZM25.458 45.874C23.9085 45.7308 23.1273 45.4183 23.1143 44.9365C23.0492 42.9834 23.0231 40.5843 23.0361 37.7393C22.984 37.6351 22.8701 37.5505 22.6943 37.4854C21.7894 37.9085 20.8486 38.1755 19.8721 38.2861C19.833 38.4424 19.833 38.5954 19.8721 38.7451C20.6077 38.7842 21.1676 38.9176 21.5518 39.1455C21.6104 41.5739 21.6038 43.5042 21.5322 44.9365C21.5192 45.4183 20.9658 45.7308 19.8721 45.874C19.807 46.0368 19.807 46.1963 19.8721 46.3525C21.7406 46.3135 23.6025 46.3135 25.458 46.3525C25.5231 46.1963 25.5231 46.0368 25.458 45.874ZM25.8193 45.5127C25.9235 45.9163 25.9235 46.3102 25.8193 46.6943C23.723 46.6292 21.6234 46.6292 19.5205 46.6943C19.4098 46.3102 19.4098 45.9163 19.5205 45.5127C20.5817 45.4085 21.1188 45.21 21.1318 44.917C21.2165 43.0941 21.223 41.2484 21.1514 39.3799C20.7152 39.2497 20.1715 39.165 19.5205 39.126C19.3708 38.7354 19.3708 38.3219 19.5205 37.8857C20.5036 37.8337 21.6104 37.5407 22.8408 37.0068C23.5439 37.0589 24.068 37.2705 24.4131 37.6416C24.387 40.8447 24.4131 43.2699 24.4912 44.917C24.5107 45.21 24.9535 45.4085 25.8193 45.5127ZM28.8955 46.4404C28.583 46.5446 28.277 46.6715 27.9775 46.8213C27.6715 46.6325 27.4697 46.4404 27.3721 46.2451C27.3851 46.2061 27.4046 46.0726 27.4307 45.8447C27.4567 45.6169 27.4827 45.3499 27.5088 45.0439C27.5413 44.738 27.5674 44.4222 27.5869 44.0967C27.6064 43.7712 27.6162 43.4945 27.6162 43.2666C27.9222 43.1234 28.3942 43.0518 29.0322 43.0518C29.1038 43.0518 29.1755 43.0518 29.2471 43.0518C29.3187 43.0518 29.3936 43.055 29.4717 43.0615C29.9404 44.585 30.5817 45.4118 31.3955 45.542C31.7275 45.4899 31.9814 45.3695 32.1572 45.1807C32.3395 44.9854 32.4307 44.7673 32.4307 44.5264C32.4307 44.3506 32.3818 44.1878 32.2842 44.0381C32.1865 43.8818 32.0563 43.7386 31.8936 43.6084C31.7308 43.4782 31.5387 43.3577 31.3174 43.2471C31.1025 43.1364 30.8747 43.029 30.6338 42.9248C30.3929 42.8141 30.1488 42.71 29.9014 42.6123C29.654 42.5081 29.4163 42.4007 29.1885 42.29C28.9476 42.1794 28.7197 42.0459 28.5049 41.8896C28.29 41.7269 28.1012 41.5446 27.9385 41.3428C27.7757 41.1344 27.6455 40.9066 27.5479 40.6592C27.4567 40.4118 27.4111 40.1449 27.4111 39.8584C27.4111 39.5524 27.4632 39.2334 27.5674 38.9014C27.6715 38.5693 27.8506 38.2666 28.1045 37.9932C28.3584 37.7197 28.7002 37.4951 29.1299 37.3193C29.5596 37.137 30.0999 37.0459 30.751 37.0459C31.4736 37.0459 32.0075 37.085 32.3525 37.1631L32.7139 37.0459H33.3779C33.4626 37.5993 33.5635 38.1169 33.6807 38.5986C33.8044 39.0804 33.9411 39.5296 34.0908 39.9463C33.8109 40.2262 33.4723 40.3662 33.0752 40.3662C32.8538 40.1058 32.6488 39.8714 32.46 39.6631C32.2712 39.4482 32.0889 39.2627 31.9131 39.1064C31.7438 38.9502 31.5745 38.8232 31.4053 38.7256C31.2425 38.6279 31.0732 38.5596 30.8975 38.5205C30.4678 38.5921 30.2529 38.7874 30.2529 39.1064C30.2529 39.3604 30.3636 39.5817 30.585 39.7705C30.8063 39.9593 31.083 40.1318 31.415 40.2881C31.7471 40.4443 32.1084 40.5941 32.499 40.7373C32.8962 40.874 33.2705 41.0205 33.6221 41.1768C33.876 41.2874 34.1136 41.4307 34.335 41.6064C34.5628 41.7822 34.7614 41.9873 34.9307 42.2217C35.0999 42.4495 35.2334 42.7067 35.3311 42.9932C35.4287 43.2731 35.4775 43.5758 35.4775 43.9014C35.4775 44.3831 35.3538 44.8161 35.1064 45.2002C34.8656 45.5843 34.5433 45.9098 34.1396 46.1768C33.7425 46.4437 33.2868 46.6488 32.7725 46.792C32.2581 46.9352 31.734 47.0068 31.2002 47.0068C30.2822 47.0068 29.514 46.818 28.8955 46.4404ZM31.1318 46.6064C31.9456 46.6064 32.6423 46.3656 33.2217 45.8838C33.8011 45.402 34.0908 44.8617 34.0908 44.2627C34.0908 43.6768 33.9118 43.1722 33.5537 42.749C33.1956 42.3193 32.7627 41.9873 32.2549 41.7529C31.7471 41.5186 31.236 41.3037 30.7217 41.1084C30.2074 40.9066 29.7712 40.6722 29.4131 40.4053C29.055 40.1383 28.876 39.8258 28.876 39.4678C28.876 39.012 29.0452 38.667 29.3838 38.4326C29.7223 38.1982 30.1195 38.0811 30.5752 38.0811C31.057 38.0811 31.4867 38.2308 31.8643 38.5303C32.2419 38.8298 32.7041 39.3083 33.251 39.9658C33.4268 39.9658 33.5537 39.9235 33.6318 39.8389C33.391 39.1488 33.0329 38.5791 32.5576 38.1299C32.0889 37.6742 31.4867 37.4463 30.751 37.4463C29.7028 37.4463 28.9508 37.6969 28.4951 38.1982C28.0394 38.693 27.8115 39.2464 27.8115 39.8584C27.8115 40.3792 27.984 40.8252 28.3291 41.1963C28.6807 41.5609 29.1006 41.8441 29.5889 42.0459C30.0837 42.2412 30.5752 42.4365 31.0635 42.6318C31.5518 42.8271 31.9684 43.0811 32.3135 43.3936C32.6585 43.7061 32.8311 44.0837 32.8311 44.5264C32.8311 44.8975 32.6715 45.2295 32.3525 45.5225C32.0335 45.8154 31.5876 45.9619 31.0146 45.9619C30.3245 45.9619 29.7907 45.7438 29.4131 45.3076C29.042 44.8649 28.7295 44.2497 28.4756 43.4619C28.2477 43.4619 28.0947 43.4814 28.0166 43.5205C28.0166 43.9893 27.9938 44.5264 27.9482 45.1318C27.9027 45.7373 27.8571 46.0954 27.8115 46.2061C27.8571 46.2712 27.9189 46.3298 27.9971 46.3818C28.264 46.193 28.4691 45.9945 28.6123 45.7861C29.1852 46.1051 29.6312 46.32 29.9502 46.4307C30.2757 46.5479 30.6696 46.6064 31.1318 46.6064ZM39.833 32.6025C41.3044 32.6025 42.04 33.1364 42.04 34.2041C42.04 35.2718 41.3044 35.8057 39.833 35.8057C39.6117 35.8057 39.4033 35.7633 39.208 35.6787C39.0192 35.5941 38.8532 35.4801 38.71 35.3369C38.5667 35.1872 38.4528 35.0146 38.3682 34.8193C38.2835 34.624 38.2412 34.4189 38.2412 34.2041C38.2412 33.9893 38.2835 33.7842 38.3682 33.5889C38.4528 33.3936 38.5667 33.2243 38.71 33.0811C38.8532 32.9313 39.0192 32.8141 39.208 32.7295C39.4033 32.6449 39.6117 32.6025 39.833 32.6025ZM38.9346 33.3643C38.7393 33.5921 38.6416 33.8721 38.6416 34.2041C38.6416 34.3734 38.6676 34.5329 38.7197 34.6826C38.7783 34.8258 38.8564 34.9528 38.9541 35.0635C39.0518 35.1676 39.1624 35.2523 39.2861 35.3174C39.4163 35.376 39.5531 35.4053 39.6963 35.4053C39.833 35.4053 39.9665 35.376 40.0967 35.3174C40.2269 35.2523 40.3408 35.1676 40.4385 35.0635C40.5361 34.9528 40.6143 34.8258 40.6729 34.6826C40.7314 34.5329 40.7607 34.3734 40.7607 34.2041C40.7607 34.0348 40.7314 33.8786 40.6729 33.7354C40.6143 33.5856 40.5361 33.4587 40.4385 33.3545C40.3408 33.2438 40.2269 33.1592 40.0967 33.1006C39.9665 33.0355 39.833 33.0029 39.6963 33.0029C39.5596 33.0029 39.4261 33.0322 39.2959 33.0908C39.1657 33.1494 39.0452 33.2406 38.9346 33.3643ZM42.8799 45.874C41.3304 45.7308 40.5492 45.4183 40.5361 44.9365C40.471 42.9834 40.445 40.5843 40.458 37.7393C40.4059 37.6351 40.292 37.5505 40.1162 37.4854C39.2113 37.9085 38.2705 38.1755 37.2939 38.2861C37.2549 38.4424 37.2549 38.5954 37.2939 38.7451C38.0296 38.7842 38.5895 38.9176 38.9736 39.1455C39.0322 41.5739 39.0257 43.5042 38.9541 44.9365C38.9411 45.4183 38.3877 45.7308 37.2939 45.874C37.2288 46.0368 37.2288 46.1963 37.2939 46.3525C39.1624 46.3135 41.0244 46.3135 42.8799 46.3525C42.945 46.1963 42.945 46.0368 42.8799 45.874ZM43.2412 45.5127C43.3454 45.9163 43.3454 46.3102 43.2412 46.6943C41.1449 46.6292 39.0452 46.6292 36.9424 46.6943C36.8317 46.3102 36.8317 45.9163 36.9424 45.5127C38.0036 45.4085 38.5407 45.21 38.5537 44.917C38.6383 43.0941 38.6449 41.2484 38.5732 39.3799C38.137 39.2497 37.5934 39.165 36.9424 39.126C36.7926 38.7354 36.7926 38.3219 36.9424 37.8857C37.9255 37.8337 39.0322 37.5407 40.2627 37.0068C40.9658 37.0589 41.4899 37.2705 41.835 37.6416C41.8089 40.8447 41.835 43.2699 41.9131 44.917C41.9326 45.21 42.3753 45.4085 43.2412 45.5127Z" fill="#201F1F"/>
</g>
<g clip-path="url(#clip0_291_2322)">
<path d="M78.8419 40.8809C79.3073 40.8809 79.7622 41.0189 80.1492 41.2774C80.5361 41.536 80.8377 41.9035 81.0158 42.3335C81.1939 42.7634 81.2405 43.2366 81.1497 43.693C81.0589 44.1495 80.8348 44.5687 80.5057 44.8978C80.1766 45.2269 79.7574 45.451 79.3009 45.5418C78.8445 45.6326 78.3713 45.586 77.9414 45.4079C77.5114 45.2298 77.1439 44.9282 76.8853 44.5413C76.6268 44.1543 76.4888 43.6993 76.4888 43.2339C76.4888 42.6099 76.7367 42.0113 77.178 41.57C77.6192 41.1288 78.2178 40.8809 78.8419 40.8809Z" fill="#16147A"/>
<path d="M84.6854 40.8809C85.1508 40.8809 85.6057 41.0189 85.9927 41.2774C86.3796 41.536 86.6812 41.9035 86.8593 42.3335C87.0374 42.7634 87.084 43.2366 86.9933 43.693C86.9025 44.1495 86.6783 44.5687 86.3493 44.8978C86.0202 45.2269 85.6009 45.451 85.1444 45.5418C84.688 45.6326 84.2149 45.586 83.7849 45.4079C83.3549 45.2298 82.9874 44.9282 82.7289 44.5413C82.4703 44.1543 82.3323 43.6993 82.3323 43.2339C82.3323 42.6099 82.5802 42.0113 83.0215 41.57C83.4628 41.1288 84.0613 40.8809 84.6854 40.8809Z" fill="#16147A"/>
<path d="M81.7676 48.4888C83.0628 48.4888 84.1128 47.4388 84.1128 46.1436C84.1128 44.8483 83.0628 43.7983 81.7676 43.7983C80.4724 43.7983 79.4224 44.8483 79.4224 46.1436C79.4224 47.4388 80.4724 48.4888 81.7676 48.4888Z" fill="#16147A"/>
<path d="M81.7676 42.6456C83.0628 42.6456 84.1128 41.5956 84.1128 40.3003C84.1128 39.0051 83.0628 37.9551 81.7676 37.9551C80.4724 37.9551 79.4224 39.0051 79.4224 40.3003C79.4224 41.5956 80.4724 42.6456 81.7676 42.6456Z" fill="#16147A"/>
<path d="M81.689 40.8809C82.1544 40.8809 82.6093 41.0189 82.9963 41.2774C83.3833 41.536 83.6849 41.9035 83.863 42.3335C84.0411 42.7634 84.0877 43.2366 83.9969 43.693C83.9061 44.1495 83.682 44.5687 83.3529 44.8978C83.0238 45.2269 82.6045 45.451 82.1481 45.5418C81.6916 45.6326 81.2185 45.586 80.7885 45.4079C80.3585 45.2298 79.9911 44.9282 79.7325 44.5413C79.4739 44.1543 79.3359 43.6993 79.3359 43.2339C79.3359 42.6099 79.5838 42.0113 80.0251 41.57C80.4664 41.1288 81.0649 40.8809 81.689 40.8809Z" fill="white"/>
</g>
<defs>
<filter id="filter0_d_291_2322" x="-3.02441" y="31.5479" width="50.4219" height="23.459" filterUnits="userSpaceOnUse" color-interpolation-filters="sRGB">
<feFlood flood-opacity="0" result="BackgroundImageFix"/>
<feColorMatrix in="SourceAlpha" type="matrix" values="0 0 0 0 0 0 0 0 0 0 0 0 0 0 0 0 0 0 127 0" result="hardAlpha"/>
<feOffset dy="4"/>
<feGaussianBlur stdDeviation="2"/>
<feComposite in2="hardAlpha" operator="out"/>
<feColorMatrix type="matrix" values="0 0 0 0 0 0 0 0 0 0 0 0 0 0 0 0 0 0 0.25 0"/>
<feBlend mode="normal" in2="BackgroundImageFix" result="effect1_dropShadow_291_2322"/>
<feBlend mode="normal" in="SourceGraphic" in2="effect1_dropShadow_291_2322" result="shape"/>
</filter>
<clipPath id="clip0_291_2322">
<rect width="10.534" height="10.534" fill="white" transform="translate(76.4966 37.9551)"/>
</clipPath>
</defs>
</svg>
